<?xml version="1.0" standalone="no"?>
<!DOCTYPE svg PUBLIC "-//W3C//DTD SVG 20010904//EN"
 "http://www.w3.org/TR/2001/REC-SVG-20010904/DTD/svg10.dtd">
<svg version="1.0" xmlns="http://www.w3.org/2000/svg"
 width="922.000000pt" height="922.000000pt" viewBox="0 0 922.000000 922.000000"
 preserveAspectRatio="xMidYMid meet">
<metadata>
Created by potrace 1.14, written by Peter Selinger 2001-2017
</metadata>
<g transform="translate(0.000000,922.000000) scale(0.100000,-0.100000)"
fill="#213857" stroke="none">
<path d="M375 9199 c-45 -22 -95 -71 -95 -93 0 -8 -4 -17 -9 -20 -14 -9 -9
-108 8 -146 41 -91 140 -200 296 -325 20 -16 42 -35 49 -40 6 -6 40 -33 76
-60 36 -27 67 -52 70 -55 3 -3 27 -22 55 -41 27 -18 55 -38 61 -44 6 -5 37
-28 68 -50 31 -22 93 -66 137 -97 43 -32 82 -58 85 -58 2 0 14 -8 25 -18 10
-11 32 -25 47 -33 15 -8 29 -17 32 -20 3 -3 93 -64 200 -136 186 -124 264
-175 447 -292 71 -46 84 -59 96 -95 30 -88 115 -194 211 -264 28 -20 57 -42
64 -49 7 -7 19 -13 27 -13 7 0 15 -3 17 -7 8 -20 221 -125 363 -180 50 -19 99
-39 110 -43 27 -12 70 -24 70 -20 0 2 11 -3 25 -10 14 -8 30 -15 35 -16 6 -1
39 -12 75 -24 79 -25 259 -78 286 -83 10 -2 26 -6 34 -10 18 -6 96 -26 125
-31 11 -2 58 -14 104 -26 46 -11 102 -25 125 -30 208 -44 286 -60 315 -65 18
-3 36 -7 40 -9 3 -2 24 -7 46 -10 22 -4 47 -9 55 -11 8 -3 33 -7 55 -11 50 -7
72 -11 110 -18 92 -18 317 -57 350 -61 17 -1 47 -6 68 -9 20 -3 52 -8 70 -11
17 -3 43 -7 57 -9 14 -3 43 -7 65 -11 72 -10 73 -11 61 -50 -6 -19 -14 -35
-18 -35 -5 0 -8 -5 -8 -11 0 -19 -112 -182 -152 -223 -7 -7 -29 -32 -48 -55
-33 -42 -62 -73 -155 -171 -63 -67 -269 -264 -364 -350 -150 -135 -160 -143
-256 -225 -32 -27 -66 -57 -75 -66 -9 -8 -25 -22 -37 -30 -20 -14 -57 -45
-177 -145 -34 -28 -101 -81 -151 -119 -49 -38 -95 -74 -101 -80 -6 -5 -23 -19
-38 -30 -15 -11 -65 -49 -111 -85 -45 -36 -106 -83 -134 -105 -29 -22 -62 -48
-74 -57 -79 -61 -177 -140 -177 -143 0 -3 23 3 93 26 27 8 113 33 152 43 6 2
17 6 25 9 23 9 253 78 275 83 21 4 146 42 330 100 107 34 243 81 315 109 19 7
103 39 185 71 183 70 337 133 350 145 5 5 15 9 21 9 7 0 48 16 91 36 43 20
107 50 143 66 60 28 379 187 425 212 11 6 23 15 26 19 3 5 9 8 13 7 12 -4 302
167 466 275 168 110 324 225 465 344 108 91 335 315 335 330 0 6 3 11 8 11 11
0 131 155 194 250 112 171 213 403 234 537 3 21 8 41 10 45 2 3 7 28 10 54 3
27 8 52 10 56 7 10 6 277 -1 313 -3 17 -8 44 -11 60 -11 63 -45 143 -87 205
-36 53 -152 167 -179 176 -10 3 -18 9 -18 14 0 9 -233 128 -265 135 -11 2 -43
12 -70 23 -48 18 -193 59 -239 68 -11 2 -34 7 -51 11 -16 3 -37 7 -45 8 -8 1
-55 10 -105 18 -89 16 -148 25 -215 32 -19 3 -53 7 -75 9 -84 11 -249 23 -450
33 -165 8 -876 8 -1100 0 -93 -4 -222 -9 -285 -11 -150 -6 -446 -6 -535 -1
-208 13 -310 23 -424 41 -13 2 -45 6 -70 10 -25 3 -57 8 -71 10 -14 2 -41 7
-60 10 -19 3 -45 7 -57 10 -13 2 -35 6 -50 9 -16 3 -48 10 -73 15 -42 10 -59
13 -120 25 -14 3 -35 7 -47 9 -40 8 -196 48 -288 73 -49 14 -97 26 -105 28 -8
2 -46 13 -85 25 -38 12 -92 27 -120 35 -27 7 -63 19 -80 25 -16 7 -37 13 -45
15 -8 2 -34 10 -57 19 -24 8 -43 13 -43 11 0 -2 -24 7 -52 19 -29 13 -56 24
-60 25 -5 0 -9 1 -10 2 -2 0 -10 2 -18 4 -8 2 -39 13 -67 23 -29 11 -53 17
-53 14 0 -4 -4 -2 -8 3 -4 6 -25 16 -47 23 -46 16 -223 80 -245 89 -19 8 -20
8 -55 18 -16 4 -34 11 -40 15 -5 4 -19 10 -30 13 -11 3 -60 19 -110 37 -49 18
-97 33 -105 35 -8 2 -35 8 -60 15 -78 22 -180 21 -225 -1z"/>
<path d="M7261 6712 c-64 -50 -168 -156 -326 -337 -38 -44 -74 -85 -80 -91 -5
-6 -28 -33 -50 -60 -22 -26 -49 -58 -60 -70 -11 -13 -30 -36 -43 -53 -13 -16
-36 -44 -52 -63 -16 -18 -30 -36 -30 -40 0 -7 54 -3 68 6 4 2 26 7 47 10 45 6
92 15 115 21 8 3 33 7 55 10 22 3 51 8 65 11 14 3 34 8 45 9 11 2 61 11 110
20 50 9 104 18 120 21 17 3 51 9 78 14 26 6 51 9 55 9 4 -1 9 0 12 1 3 1 16 3
30 5 14 2 41 6 60 9 72 11 116 18 140 21 151 24 402 24 555 0 59 -9 139 -25
179 -37 23 -6 43 -12 46 -12 3 -1 19 -6 35 -13 31 -12 53 -19 70 -23 9 -2 64
-31 139 -74 24 -14 62 -44 94 -74 l23 -23 42 46 c113 123 165 240 154 344 -9
81 -49 144 -137 215 -56 45 -270 129 -384 150 -11 2 -37 7 -56 11 -19 3 -44 8
-55 10 -11 2 -20 4 -20 5 0 1 -13 3 -30 5 -16 2 -48 6 -70 8 -22 3 -69 9 -105
12 -36 3 -82 8 -103 11 -72 8 -273 16 -482 18 l-209 2 -45 -34z"/>
<path d="M6037 4834 c-1 -1 -31 -5 -67 -8 -59 -6 -97 -11 -110 -16 -3 -1 -9
-2 -14 -1 -4 1 -14 -4 -22 -10 -8 -6 -14 -9 -14 -5 0 9 -137 -43 -210 -79 -36
-18 -93 -54 -128 -79 -71 -53 -202 -184 -202 -203 0 -7 -4 -13 -10 -13 -5 0
-10 -7 -10 -15 0 -8 -4 -15 -8 -15 -4 0 -18 -21 -31 -47 -17 -35 -19 -48 -10
-54 7 -4 17 -5 21 -3 4 3 8 0 8 -5 0 -6 8 -11 18 -11 26 0 182 -82 255 -134
57 -41 172 -148 217 -202 35 -43 102 -150 130 -209 33 -70 79 -206 84 -252 2
-15 5 -28 6 -28 5 0 13 -117 13 -185 0 -63 -8 -165 -13 -165 -1 0 -3 -11 -6
-25 -2 -14 -7 -32 -11 -40 -3 -8 -7 -22 -9 -30 -2 -8 -7 -23 -12 -35 -71 -150
-105 -216 -178 -345 -47 -84 -88 -160 -91 -169 -3 -9 -13 -24 -21 -33 -8 -10
-12 -18 -7 -18 4 0 3 -6 -2 -12 -11 -14 -52 -121 -59 -153 -17 -79 -15 -117 9
-168 42 -89 134 -171 392 -347 199 -135 316 -235 381 -325 16 -22 31 -42 34
-45 3 -3 11 -17 19 -33 15 -27 15 -27 95 -22 81 5 117 8 231 21 110 12 104 11
220 29 22 3 48 8 57 11 10 3 30 8 45 11 72 13 230 60 248 73 6 4 21 11 34 15
31 9 119 63 158 96 108 91 117 227 26 366 -36 55 -164 181 -214 210 -16 10
-29 21 -29 25 0 4 -7 8 -15 8 -8 0 -15 5 -15 11 0 5 -4 7 -10 4 -5 -3 -10 -2
-10 3 0 4 -30 28 -67 52 -38 25 -70 47 -73 50 -3 3 -29 21 -57 40 -29 19 -53
38 -53 43 0 4 -6 7 -12 7 -7 0 -31 16 -53 36 -181 161 -236 253 -231 390 6
146 54 270 215 548 28 49 51 91 51 93 0 2 11 20 24 41 12 20 23 39 23 42 1 3
13 32 28 65 64 139 79 198 79 320 -1 477 -365 865 -864 921 -49 5 -170 11
-173 8z"/>
<path d="M4778 4195 c-2 -1 -32 -5 -68 -9 -111 -10 -118 -12 -280 -61 -98 -30
-248 -125 -342 -218 -60 -59 -141 -168 -152 -204 -4 -13 -12 -23 -17 -23 -5 0
-9 -6 -9 -14 0 -7 27 -23 63 -36 64 -24 180 -83 208 -106 8 -8 21 -14 27 -14
7 0 12 -4 12 -8 0 -4 12 -15 28 -24 54 -32 242 -229 242 -254 0 -6 7 -17 16
-25 25 -21 101 -186 127 -279 32 -113 35 -134 41 -280 3 -97 -4 -146 -37 -265
-19 -67 -109 -253 -180 -375 -60 -102 -148 -271 -152 -291 -3 -13 -10 -26 -16
-29 -6 -4 -11 -11 -10 -16 0 -16 -10 -58 -18 -74 -4 -8 -7 -42 -7 -75 2 -97
64 -182 208 -290 35 -25 70 -51 79 -58 38 -30 75 -54 92 -60 9 -3 17 -11 17
-17 0 -5 5 -10 10 -10 9 0 146 -95 210 -145 39 -31 163 -158 190 -195 14 -18
30 -45 36 -59 9 -24 16 -26 67 -26 31 -1 57 3 57 8 0 5 6 4 13 -2 8 -6 16 -8
19 -5 3 3 34 7 69 9 67 4 148 13 189 20 14 2 45 7 70 10 25 4 77 13 115 21 39
9 84 18 100 21 54 9 205 62 268 94 85 43 150 96 183 149 36 59 39 155 6 230
-48 110 -148 208 -362 355 -194 133 -215 148 -218 157 -2 4 -10 8 -17 8 -8 0
-22 11 -33 25 -11 14 -24 25 -30 25 -5 0 -42 34 -82 76 -129 136 -162 254
-119 423 18 70 55 168 71 185 4 6 8 18 8 28 0 10 5 18 10 18 6 0 10 4 10 9 0
5 39 78 86 163 48 84 92 164 98 178 6 14 14 28 19 31 5 3 9 12 11 20 1 8 12
33 24 57 12 23 20 42 17 42 -3 0 2 11 11 25 9 14 14 25 10 25 -3 0 -1 12 5 28
38 97 31 282 -17 448 -18 65 -103 233 -133 265 -12 13 -36 42 -54 65 -17 22
-57 60 -88 85 -32 24 -58 47 -58 52 -1 4 -5 7 -10 7 -6 0 -29 13 -53 29 -44
30 -133 73 -178 86 -14 4 -30 12 -37 17 -6 5 -25 10 -42 10 -17 1 -31 4 -31 8
0 10 -282 44 -292 35z"/>
<path d="M3351 3544 c-123 -22 -319 -91 -329 -116 -2 -4 -8 -8 -14 -8 -39 0
-246 -183 -314 -276 -21 -30 -104 -188 -106 -201 0 -5 -2 -12 -4 -18 -8 -25
-28 -102 -30 -115 -2 -8 -5 -26 -8 -40 -14 -55 -13 -208 1 -274 16 -82 60
-190 120 -298 24 -43 43 -83 43 -88 0 -6 4 -10 9 -10 5 0 15 -15 22 -32 7 -18
30 -60 49 -93 56 -94 140 -277 146 -320 2 -11 6 -31 10 -45 4 -14 7 -61 7
-105 0 -69 -4 -89 -31 -147 -31 -65 -133 -181 -207 -236 -16 -12 -60 -44 -97
-72 -37 -27 -71 -50 -77 -50 -5 0 -11 -3 -13 -7 -3 -9 -64 -53 -72 -53 -3 0
-14 -7 -23 -15 -10 -8 -54 -41 -99 -74 -195 -144 -284 -274 -279 -409 2 -68
30 -121 94 -179 37 -33 199 -119 241 -127 3 -1 11 -5 18 -9 6 -5 12 -6 12 -3
0 3 19 -2 43 -10 37 -13 82 -25 152 -40 63 -13 287 -46 327 -47 27 -1 48 -4
48 -7 0 -3 53 -7 118 -10 229 -9 937 -2 937 10 0 1 25 3 55 5 73 4 221 26 345
50 86 17 244 64 283 84 9 5 32 15 50 21 17 7 32 16 32 21 0 5 6 9 13 9 21 0
113 73 132 105 41 67 47 82 47 135 0 99 -49 194 -149 290 -60 56 -133 120
-138 120 -7 0 -306 209 -342 240 -7 5 -14 10 -17 10 -6 0 -80 66 -120 106 -53
54 -86 101 -117 165 -22 47 -27 161 -9 228 5 19 7 38 4 43 -3 4 -1 8 4 8 5 0
9 6 9 14 0 24 77 198 105 239 11 15 21 33 22 40 1 7 9 23 18 37 33 52 134 238
163 300 17 36 34 68 38 71 5 3 8 9 8 13 -1 3 -1 7 0 9 0 1 2 9 4 17 1 8 8 35
16 60 18 66 31 192 20 214 -2 5 -5 27 -7 50 -1 22 -5 53 -8 69 -3 15 -8 39
-11 53 -7 30 -47 140 -72 192 -48 104 -190 266 -288 331 -22 14 -42 28 -45 32
-21 24 -219 107 -297 124 -13 3 -33 8 -45 11 -83 21 -298 25 -397 8z"/>
</g>
</svg>
